<svg xmlns="http://www.w3.org/2000/svg" viewBox="0 0 344.13 224.56"><defs><style>.cls-1{fill:none;stroke:#e5a43c;stroke-linecap:round;stroke-miterlimit:10;stroke-width:12px;}.cls-2{fill:#e5a43c;}</style></defs><g id="Layer_2" data-name="Layer 2"><g id="Layer_1-2" data-name="Layer 1"><path class="cls-1" d="M112.21,34.61H334.85l-56.17,125h-192S62,19.72,38.68,8.05C20.3-1.14,6,23.51,6,23.51"/><path class="cls-2" d="M188,60.8a32.18,32.18,0,0,0,0,64.36,31.8,31.8,0,0,0,14.29-3.35,30,30,0,0,0,9.21-33A29.35,29.35,0,0,0,208.72,83a23.27,23.27,0,0,0-4-4.9,22.92,22.92,0,0,0-23.34-4.87l-.38.15c-.36.14-.71.27-1,.42l-.29.13a4,4,0,0,0-.41.19l-.73.36a3.3,3.3,0,0,0-.42.23l-.51.29a3.44,3.44,0,0,0-.38.22l-.26.16c-.36.23-.72.45-1,.69a17.5,17.5,0,0,0-4.21,4.26,18.43,18.43,0,0,0-1.48,2.59,17.36,17.36,0,0,0-1,2.8,17.13,17.13,0,0,0-.55,5.89,16.92,16.92,0,0,0,1.46,5.7,17.89,17.89,0,0,0,1.44,2.57,13.22,13.22,0,0,0,1.82,2.13,13,13,0,0,0,4.73,2.86,13.27,13.27,0,0,0,5.45.63,12.9,12.9,0,0,0,5.18-1.65c.18-.09.33-.19.49-.28l.1-.07c.15-.09.26-.17.37-.25l.17-.13.22-.16a2.78,2.78,0,0,0,.27-.21l.5-.45a3.44,3.44,0,0,0,.33-.34l.09-.1.19-.2.22-.25c.07-.11.17-.24.26-.37a5.6,5.6,0,0,0,.46-.66l.29-.49.34-.7a1,1,0,0,0,.09-.23l.19-.5a2,2,0,0,0,.12-.37l.19-.72c0-.08,0-.2.05-.32l.11-.62.07-1a9.49,9.49,0,0,0-1.22-4.84l-.29-.53-.4-.57-.77-.83a7.21,7.21,0,0,0-2-1.31,7.43,7.43,0,0,0-4.73-.42l-.61.18-.19.07-1,.47c-.14.08-.26.14-.36.21A5.54,5.54,0,0,0,180,94a5.49,5.49,0,0,0,1,2.08,1,1,0,0,0,.16.18l.21.22a1,1,0,0,1,.16.13c.08.06.14.12.22.17a5.11,5.11,0,0,0,1.07.57,4.44,4.44,0,0,0,2.22.19,4.31,4.31,0,0,0,2.09-1,3.43,3.43,0,0,0,1.07-1.9,3.63,3.63,0,0,0-.31-2.3,2.79,2.79,0,0,0-1.67-1.47,3,3,0,0,0-2.39.22,1,1,0,0,1-.83.08,1.09,1.09,0,0,1-.35-1.9,5.37,5.37,0,0,1,4.22-1,5.67,5.67,0,0,1,3.73,2.51,6.77,6.77,0,0,1,1.1,4.31,7.13,7.13,0,0,1-1.81,4.21,7.59,7.59,0,0,1-1.81,1.45,8.78,8.78,0,0,1-6.63.9,8.5,8.5,0,0,1-2.17-.9,5.12,5.12,0,0,1-.7-.45l-.23-.16a4.15,4.15,0,0,1-.35-.29l-.13-.11a6.31,6.31,0,0,1-.47-.44L177,99l-.29-.35.39-.51-.47.4a6.28,6.28,0,0,1-.55-.79l-.1-.16a5.73,5.73,0,0,1-.44-.81l-.09-.18a5.2,5.2,0,0,1-.32-.77l-.1-.27a10.9,10.9,0,0,1-.56-4.51,11,11,0,0,1,4.41-7.8,6.59,6.59,0,0,1,.82-.56l.55-.33a2.75,2.75,0,0,1,.38-.2l.66-.32a4.38,4.38,0,0,1,.54-.23l1-.35a13.33,13.33,0,0,1,12.65,2.7l1,1c.19.2.38.41.56.62l.67.89a4.68,4.68,0,0,1,.27.4l.32.54a13,13,0,0,1,.84,1.61l.13.3a3.88,3.88,0,0,1,.23.56l.22.63a8.41,8.41,0,0,1,.28.93l.23,1a7.28,7.28,0,0,1,.13.77l.11.84a2.73,2.73,0,0,1,0,.41l.05,1.2a16.27,16.27,0,0,1-2.37,8.3,11.58,11.58,0,0,1-1.06,1.53l-.17.23a7.28,7.28,0,0,1-.51.58l-.31.33a7,7,0,0,1-.72.72l-.76.66c-.21.18-.41.32-.61.47l-.45.31a8.73,8.73,0,0,1-.74.5c-.34.2-.61.37-.89.52a19.23,19.23,0,0,1-7.9,2.28,19.62,19.62,0,0,1-8.1-1.25,19.18,19.18,0,0,1-6.81-4.46,18.45,18.45,0,0,1-2.52-3.18,24,24,0,0,1-1.81-3.49A23,23,0,0,1,164,84.25a23.91,23.91,0,0,1,1.41-3.63,23.14,23.14,0,0,1,2-3.33A23.62,23.62,0,0,1,170,74.36a23,23,0,0,1,3-2.44c.45-.32.92-.6,1.38-.88l.22-.13a6.07,6.07,0,0,1,.57-.31l.49-.27c.24-.13.44-.24.65-.33l.82-.38c.18-.09.38-.17.58-.25l.29-.12c.44-.19.9-.36,1.35-.51l.41-.15A27.42,27.42,0,0,1,194.65,68a28.61,28.61,0,0,1,3.57,1.11,29.31,29.31,0,0,1,3.4,1.58,27.21,27.21,0,0,1,6,4.48,32.39,32.39,0,0,1,8.64,26.9,33.1,33.1,0,0,1-4.46,12.65A32.16,32.16,0,0,0,188,60.8Z"/><path class="cls-2" d="M260,79.3c-2.5-2.35-16.43-15.65-26.6-9.39-.27.17-.53.34-.78.52-1.9-1.43-6.25-4.92-7.17-7.56-1.17-3.41,6.5-10,7.48-11s-.16-1.91-.9-2.34-2.39,1.6-.67,2.23-5.16,4.22-6.88,10.17c-1.35,4.63,3.58,8.88,5.82,10.53-6.51,7-4.58,18.86-5.15,23.1-2.6,19.23-17.45,34.65-37.15,34.65a37.63,37.63,0,0,1-20.13-5.91c-7.31-4.61-11.16-1.26-15.15.86s-12.15,3-12.15,3a59.87,59.87,0,0,0,40.33,15.55c30.49,0,57.43-22.52,59.58-52.13.27-3.8,8.1-6.77,11.07-6.3S262.54,81.65,260,79.3Z"/><circle class="cls-2" cx="105.06" cy="201.07" r="23.49"/><circle class="cls-2" cx="260.51" cy="201.07" r="23.49"/></g></g></svg>