<svg xmlns="http://www.w3.org/2000/svg" viewBox="0 0 52.5 52.5"><defs><style>.cls-1{fill:#e5a43c;}</style></defs><g id="Layer_2" data-name="Layer 2"><g id="Layer_1-2" data-name="Layer 1"><path class="cls-1" d="M26.25,0a26.25,26.25,0,0,0,0,52.5,26,26,0,0,0,11.66-2.73,24.35,24.35,0,0,0,5.42-6.35,24.74,24.74,0,0,0,3.34-10.09,24.47,24.47,0,0,0-1.25-10.46,23.28,23.28,0,0,0-2.29-4.75,19.18,19.18,0,0,0-3.27-4,18.7,18.7,0,0,0-19-4l-.31.12c-.3.11-.58.22-.85.35l-.24.1-.34.15-.59.3-.34.18-.42.24-.31.18-.21.13c-.29.19-.59.37-.85.57a16,16,0,0,0-1.88,1.59,15.48,15.48,0,0,0-1.55,1.88,14.75,14.75,0,0,0-1.21,2.11,14.23,14.23,0,0,0-.83,2.29,14,14,0,0,0-.45,4.8,13.8,13.8,0,0,0,1.19,4.65,14.28,14.28,0,0,0,1.18,2.1,10.56,10.56,0,0,0,9.78,4.58,10.49,10.49,0,0,0,4.23-1.34,3.85,3.85,0,0,0,.4-.24l.08,0a1.94,1.94,0,0,0,.3-.21l.14-.1.18-.13.22-.17.41-.37a2.29,2.29,0,0,0,.27-.27l.07-.08.16-.17.17-.21c.06-.09.14-.19.22-.29a4.42,4.42,0,0,0,.37-.55l.24-.39.28-.57a1.6,1.6,0,0,0,.07-.19l.15-.41a1.32,1.32,0,0,0,.1-.3l.16-.59c0-.06,0-.16,0-.26l.09-.5.05-.79a7.67,7.67,0,0,0-1-4l-.23-.42c-.12-.16-.22-.32-.33-.47l-.63-.68a5.82,5.82,0,0,0-1.6-1.07,6.1,6.1,0,0,0-3.87-.34l-.49.15-.16.05-.82.39-.3.17a4.65,4.65,0,0,0-1.33,1.32,4.56,4.56,0,0,0-.58,3.63,4.46,4.46,0,0,0,.83,1.69,1.08,1.08,0,0,0,.14.15l.17.18.13.11a1,1,0,0,0,.18.13,4,4,0,0,0,.87.47,3.6,3.6,0,0,0,3.51-.62,2.76,2.76,0,0,0,.88-1.55,3,3,0,0,0-.25-1.87,2.24,2.24,0,0,0-1.36-1.2,2.47,2.47,0,0,0-1.95.18.89.89,0,0,1-.68.06.88.88,0,0,1-.53-.42.91.91,0,0,1,.24-1.13,4.41,4.41,0,0,1,3.44-.82,4.6,4.6,0,0,1,1.73.71,4.68,4.68,0,0,1,1.32,1.34,5.58,5.58,0,0,1,.9,3.52,5.88,5.88,0,0,1-1.48,3.43,6.38,6.38,0,0,1-1.48,1.19,7.14,7.14,0,0,1-1.72.71,7.06,7.06,0,0,1-3.68,0,7,7,0,0,1-1.78-.74,4.35,4.35,0,0,1-.57-.36l-.18-.13-.29-.24-.1-.09a3.2,3.2,0,0,1-.39-.36l-.28-.3a3.07,3.07,0,0,1-.24-.29l.32-.41-.39.32a6.1,6.1,0,0,1-.44-.64L16.45,30a5.91,5.91,0,0,1-.36-.66L16,29.16a5.18,5.18,0,0,1-.26-.63l-.08-.21a8.79,8.79,0,0,1-.45-3.68,8.91,8.91,0,0,1,3.59-6.37,5.22,5.22,0,0,1,.67-.45l.45-.28a2.25,2.25,0,0,1,.31-.16l.53-.26c.15-.06.29-.13.45-.18l.78-.29a11.07,11.07,0,0,1,7.19.29,11.2,11.2,0,0,1,3.13,1.91l.82.8.46.51.55.73a3.62,3.62,0,0,1,.22.32l.26.44A10.19,10.19,0,0,1,35.32,23l.11.25a4.22,4.22,0,0,1,.18.45l.18.52a5.23,5.23,0,0,1,.23.76l.19.79c0,.22.08.43.11.63l.09.69c0,.11,0,.22,0,.34l0,1a13.17,13.17,0,0,1-1.93,6.76,10,10,0,0,1-.86,1.26l-.14.18c-.14.17-.28.32-.42.47l-.25.28c-.19.19-.38.4-.59.58l-.62.54c-.17.14-.34.26-.5.38l-.36.26c-.2.14-.4.28-.61.4s-.5.3-.73.42A15.56,15.56,0,0,1,23,41.76a15.77,15.77,0,0,1-6.6-1A15.6,15.6,0,0,1,8.8,34.51a19.64,19.64,0,0,1-1.47-2.85,18.05,18.05,0,0,1-1.42-6.22,18.6,18.6,0,0,1,.74-6.31,19.7,19.7,0,0,1,1.15-3,18.66,18.66,0,0,1,1.65-2.71,18.27,18.27,0,0,1,2.08-2.4,19.81,19.81,0,0,1,2.46-2c.37-.26.75-.49,1.13-.71l.18-.11A5,5,0,0,1,15.76,8l.4-.21a5.34,5.34,0,0,1,.53-.27l.67-.32.47-.2.24-.1c.36-.15.74-.29,1.1-.41l.34-.12a22.41,22.41,0,0,1,12.15-.51,24.29,24.29,0,0,1,2.91.9,24,24,0,0,1,2.76,1.3A21.61,21.61,0,0,1,42.2,11.7a26.42,26.42,0,0,1,7,21.94A27.15,27.15,0,0,1,45.61,44,26.24,26.24,0,0,0,26.25,0Z"/></g></g></svg>