<svg xmlns="http://www.w3.org/2000/svg" viewBox="0 0 55.57 43.66"><defs><style>.cls-1{fill:#e5a43c;}</style></defs><g id="Layer_2" data-name="Layer 2"><g id="Layer_1-2" data-name="Layer 1"><path class="cls-1" d="M22,5.25a14.92,14.92,0,0,0,0,29.83,14.75,14.75,0,0,0,6.63-1.55,14,14,0,0,0,5-9.34,14,14,0,0,0-.7-6,13.62,13.62,0,0,0-1.31-2.69,10.84,10.84,0,0,0-1.85-2.28A10.61,10.61,0,0,0,18.9,11l-.18.07c-.16.06-.33.12-.48.19l-.13.06-.19.09-.34.17-.2.1-.23.14-.18.1-.12.07-.48.33a9.26,9.26,0,0,0-1.07.9,8.21,8.21,0,0,0-.88,1.07,8.89,8.89,0,0,0-.69,1.2,8,8,0,0,0-.47,1.3A7.9,7.9,0,0,0,13,19.54a7.78,7.78,0,0,0,.67,2.64,8.93,8.93,0,0,0,.67,1.19,6.11,6.11,0,0,0,.84,1,6,6,0,0,0,2.2,1.32,6.15,6.15,0,0,0,2.52.29,5.92,5.92,0,0,0,2.4-.76c.09,0,.15-.09.23-.13l.05,0,.17-.12.07-.06.11-.07.12-.1.23-.21a.81.81,0,0,0,.16-.16l0,0,.09-.1.1-.11.12-.17A2.82,2.82,0,0,0,24,23.6l.14-.23.15-.32a.34.34,0,0,0,.05-.11l.08-.23a.7.7,0,0,0,.06-.17l.09-.33s0-.1,0-.15l0-.29,0-.45a4.34,4.34,0,0,0-.56-2.24L24,18.83l-.19-.26-.36-.39a3.39,3.39,0,0,0-3.1-.8l-.28.09-.09,0-.47.22-.17.09a2.44,2.44,0,0,0-.75.75,2.59,2.59,0,0,0,.14,3l.07.08.1.1.08.06a.39.39,0,0,0,.1.08,2.43,2.43,0,0,0,.49.27,2.15,2.15,0,0,0,1,.09,2,2,0,0,0,1-.45,1.59,1.59,0,0,0,.5-.88,1.62,1.62,0,0,0-.15-1.06,1.26,1.26,0,0,0-.77-.68,1.44,1.44,0,0,0-1.11.1.5.5,0,0,1-.38,0,.52.52,0,0,1-.3-.24.51.51,0,0,1,.13-.64,2.52,2.52,0,0,1,2-.47,2.61,2.61,0,0,1,1,.4,2.75,2.75,0,0,1,.75.77,3.13,3.13,0,0,1,.51,2,3.37,3.37,0,0,1-.84,2A3.78,3.78,0,0,1,21,24.18a4.12,4.12,0,0,1-3.11-.4,2.49,2.49,0,0,1-.32-.21l-.11-.08-.16-.13-.06-.05a2.13,2.13,0,0,1-.22-.21l-.16-.17-.13-.16.18-.23-.22.18a4.17,4.17,0,0,1-.26-.37l0-.07a2.82,2.82,0,0,1-.21-.38l0-.08a3,3,0,0,1-.15-.36l0-.12a5,5,0,0,1,.37-4.11,5.16,5.16,0,0,1,1.41-1.6l.38-.26.26-.15.17-.09.31-.15.25-.11.44-.16A6.18,6.18,0,0,1,25.43,16l.48.46.25.29.31.41.13.18.15.25a5.87,5.87,0,0,1,.38.75l.07.14c0,.08.07.18.1.25l.1.3a2.51,2.51,0,0,1,.13.43l.11.45a2.7,2.7,0,0,1,.06.36l.05.39a1.23,1.23,0,0,1,0,.19l0,.56a7.44,7.44,0,0,1-1.1,3.84,6,6,0,0,1-.49.71l-.08.11-.23.27-.15.15a3.43,3.43,0,0,1-.33.33l-.35.31-.29.22-.2.14a3.5,3.5,0,0,1-.35.23c-.15.1-.28.17-.41.24a8.92,8.92,0,0,1-10.57-1.58,9.29,9.29,0,0,1-1.17-1.48,11.27,11.27,0,0,1-.84-1.62,10.46,10.46,0,0,1-.81-3.53,10.72,10.72,0,0,1,.43-3.59,10.09,10.09,0,0,1,1.59-3.22,9.6,9.6,0,0,1,1.18-1.36A9.49,9.49,0,0,1,15,10.41c.21-.15.43-.28.64-.41l.1-.06L16,9.79l.23-.12.3-.15.38-.18.27-.12.14-.05A6.62,6.62,0,0,1,18,8.93l.19-.07a12.65,12.65,0,0,1,6.9-.28,12,12,0,0,1,1.66.51,14,14,0,0,1,1.57.73A12.57,12.57,0,0,1,31,11.9a15,15,0,0,1,4,12.46A15.32,15.32,0,0,1,33,30.23a14.91,14.91,0,0,0-11-25Z"/><path class="cls-1" d="M55.35,13.83C54.19,12.74,47.74,6.57,43,9.47l-.36.24c-.88-.66-2.9-2.27-3.32-3.5-.54-1.58,3-4.64,3.46-5.09S42.73.23,42.39,0s-1.11.74-.31,1-2.39,2-3.19,4.72c-.62,2.14,1.66,4.11,2.7,4.88-3,3.25-2.13,8.73-2.39,10.7C38,30.27,31.11,37.42,22,37.42a17.41,17.41,0,0,1-9.33-2.74c-3.38-2.13-5.17-.58-7,.4A20.27,20.27,0,0,1,0,36.46a27.73,27.73,0,0,0,18.69,7.2c14.13,0,26.62-10.44,27.61-24.15.13-1.77,3.76-3.15,5.14-2.93S56.51,14.91,55.35,13.83Z"/></g></g></svg>