<svg xmlns="http://www.w3.org/2000/svg" viewBox="0 0 276 215.61"><defs><style>.cls-1{fill:none;stroke:#e5a43c;stroke-miterlimit:10;stroke-width:4px;}</style></defs><g id="Layer_2" data-name="Layer 2"><g id="Layer_1-2" data-name="Layer 1"><path class="cls-1" d="M111.2,27.45a72.28,72.28,0,0,0,0,144.55,71.44,71.44,0,0,0,32.11-7.51,67.81,67.81,0,0,0,24.11-45.27A67.21,67.21,0,0,0,164,90.41a66.1,66.1,0,0,0-6.3-13.06,52.7,52.7,0,0,0-9-11A51.52,51.52,0,0,0,96.27,55.4l-.86.33c-.81.31-1.59.6-2.33,1l-.66.29c-.34.15-.64.27-.92.42l-1.64.82c-.34.16-.63.33-.94.5l-1.14.65a9.54,9.54,0,0,0-.85.5l-.58.37c-.81.51-1.62,1-2.34,1.55a40.68,40.68,0,0,0-5.17,4.4,39.55,39.55,0,0,0-7.62,11A39.28,39.28,0,0,0,69,83.45a38.56,38.56,0,0,0,2,26,39.36,39.36,0,0,0,3.24,5.78,29.17,29.17,0,0,0,27,12.62,29.14,29.14,0,0,0,11.63-3.69c.41-.22.74-.43,1.09-.65l.25-.16a8.32,8.32,0,0,0,.82-.56l.37-.28.5-.36c.21-.16.42-.3.61-.46l1.12-1a5.34,5.34,0,0,0,.75-.76l.19-.21.43-.47a6.13,6.13,0,0,0,.49-.56c.17-.25.38-.53.6-.82a12.61,12.61,0,0,0,1-1.49l.67-1.09.75-1.58a3.25,3.25,0,0,0,.22-.51l.42-1.14a6,6,0,0,0,.27-.82l.43-1.62c0-.17.07-.44.11-.71l.24-1.39.15-2.18a21.37,21.37,0,0,0-2.72-10.88l-.66-1.18L120,92l-1.74-1.87a16.25,16.25,0,0,0-15-3.88l-1.36.41a2.85,2.85,0,0,0-.43.16l-2.26,1.06a5.09,5.09,0,0,0-.82.47,12.56,12.56,0,0,0-3,18.29,2.72,2.72,0,0,0,.36.41l.48.49a4.4,4.4,0,0,1,.37.3,3.8,3.8,0,0,0,.47.37,11.11,11.11,0,0,0,2.4,1.28,9.75,9.75,0,0,0,5,.44,9.62,9.62,0,0,0,4.68-2.15,7.7,7.7,0,0,0,2.43-4.27,8.12,8.12,0,0,0-.71-5.14A6.24,6.24,0,0,0,107.12,95a6.84,6.84,0,0,0-5.36.49,2.44,2.44,0,0,1-1.87.19,2.4,2.4,0,0,1-1.45-1.18,2.44,2.44,0,0,1,.65-3.09,12.13,12.13,0,0,1,9.48-2.26,12.62,12.62,0,0,1,4.75,1.93A12.87,12.87,0,0,1,117,94.84a15.16,15.16,0,0,1,2.48,9.67,16,16,0,0,1-4.07,9.46,17.5,17.5,0,0,1-4.07,3.26,19.12,19.12,0,0,1-4.72,2,19.69,19.69,0,0,1-15-2,13.6,13.6,0,0,1-1.57-1l-.5-.35c-.33-.26-.56-.45-.79-.65l-.29-.25a9.66,9.66,0,0,1-1.05-1l-.79-.83c-.26-.28-.45-.54-.65-.79l.86-1.13-1,.88a16.14,16.14,0,0,1-1.23-1.77l-.23-.37a15,15,0,0,1-1-1.81l-.2-.41a12.8,12.8,0,0,1-.72-1.73l-.22-.59a24.44,24.44,0,0,1-1.25-10.13,25,25,0,0,1,3.05-9.77,24.62,24.62,0,0,1,6.84-7.76A16,16,0,0,1,92.6,76.5l1.23-.74a8.44,8.44,0,0,1,.84-.45l1.48-.71a9.08,9.08,0,0,1,1.23-.52l2.15-.77a29.82,29.82,0,0,1,28.4,6l2.29,2.2c.42.46.85.92,1.25,1.4l1.5,2a7.9,7.9,0,0,1,.61.9l.73,1.21a27.28,27.28,0,0,1,1.86,3.6l.31.68a9.87,9.87,0,0,1,.5,1.25l.5,1.44a15.69,15.69,0,0,1,.63,2.08l.53,2.19c.13.6.21,1.17.28,1.73l.26,1.88c0,.3.06.62.07.93l.11,2.71A36.4,36.4,0,0,1,134,124.19a27.33,27.33,0,0,1-2.38,3.44l-.38.5c-.37.48-.77.9-1.15,1.31l-.7.75a16.43,16.43,0,0,1-1.62,1.61l-1.7,1.49c-.47.39-.93.72-1.38,1l-1,.72c-.54.38-1.11.78-1.68,1.11-.75.46-1.36.83-2,1.16a43.14,43.14,0,0,1-17.75,5.12,43.8,43.8,0,0,1-18.17-2.79,43.25,43.25,0,0,1-15.3-10,42.32,42.32,0,0,1-5.67-7.16,54.74,54.74,0,0,1-4.06-7.84,51.53,51.53,0,0,1-1.86-34.5A51.32,51.32,0,0,1,60.41,72,51.67,51.67,0,0,1,70.67,57.91a52.65,52.65,0,0,1,6.77-5.48c1-.72,2.09-1.36,3.12-2l.49-.3c.39-.24.83-.48,1.27-.7l1.11-.6c.54-.29,1-.53,1.46-.74l1.83-.86c.42-.2.87-.39,1.31-.56l.65-.27c1-.43,2-.8,3-1.15l.93-.32A62.07,62.07,0,0,1,134.1,46a67.27,67.27,0,0,1,7.63,3.56,60.87,60.87,0,0,1,13.38,10c15.19,15.53,22.44,38.11,19.42,60.42a75,75,0,0,1-10,28.43,72.26,72.26,0,0,0-53.32-121Z"/><path class="cls-1" d="M272.92,69C267.3,63.73,236,33.85,213.17,47.91c-.61.38-1.18.77-1.75,1.17-4.26-3.2-14-11-16.09-17-2.64-7.65,14.59-22.5,16.78-24.69s-.35-4.31-2-5.28-5.36,3.61-1.49,5S197,16.63,193.13,30c-3,10.41,8,19.94,13.07,23.65C191.6,69.43,195.92,96,194.64,105.52c-5.84,43.19-39.2,77.83-83.44,77.83A84.45,84.45,0,0,1,66,170.07c-16.42-10.35-25.06-2.83-34,1.93s-27.31,6.68-27.31,6.68a134.49,134.49,0,0,0,90.6,34.93c68.48,0,129-50.6,133.8-117.08.62-8.55,18.19-15.22,24.87-14.17S278.54,74.28,272.92,69Z"/></g></g></svg>